<svg class="border shadow-md" viewBox="0 0 1202.08 676.17" style="width: 1202.08px; height: 676.17px;" xmlns="http://www.w3.org/2000/svg" preserveAspectRatio="none"><rect class="bg" id="bg" x="0" y="0" width="1202.08" height="676.17" fill="#ffffff"></rect><g transform="rotate(0 601.04 338.085)"><path d="M -701.04 -37.62 S -411.00 -71.43
            0.00 -37.62 340.52 -71.43
            701.04 -37.62 926.08 -85.62
            1402.08 -37.62 1742.60 -71.43
            2103.12 -37.62 h 110 V 876.17 H -701.04 Z" fill="#000000" id="-1"></path><path d="M -701.04 30.00 S -360.52 -37.00
            0.00 30.00 340.52 -18.00
            701.04 30.00 996.08 -3.81
            1402.08 30.00 1742.60 -8.00
            2103.12 30.00 h 110 V 876.17 H -701.04 Z" fill="#050017" id="0"></path><path id="1" d="M -701.04 97.62 S -360.52 63.81
            0.00 97.62 340.52 63.81
            701.04 97.62 1041.56 63.81
            1402.08 97.62 1742.60 63.81
            2103.12 97.62 h 110 V 876.17 H -701.04 Z" fill="#0a002e"></path><path id="2" d="M -701.04 165.23 S -360.52 131.43
            0.00 165.23 340.52 125.23
            701.04 165.23 1041.56 131.43
            1402.08 165.23 1742.60 122.23
            2103.12 165.23 h 110 V 876.17 H -701.04 Z" fill="#0f0045"></path><path id="3" d="M -701.04 232.85 S -360.52 199.04
            0.00 232.85 340.52 199.04
            701.04 232.85 964.08 199.04
            1402.08 232.85 1742.60 193.85
            2103.12 232.85 h 110 V 876.17 H -701.04 Z" fill="#14005c"></path><path id="4" d="M -701.04 300.47 S -360.52 256.47
            0.00 300.47 340.52 266.66
            701.04 300.47 1041.56 266.66
            1402.08 300.47 1742.60 247.47
            2103.12 300.47 h 110 V 876.17 H -701.04 Z" fill="#190073"></path><path id="5" d="M -701.04 368.08 S -459.00 334.28
            0.00 368.08 340.52 319.08
            701.04 368.08 1041.56 329.08
            1402.08 368.08 1742.60 334.28
            2103.12 368.08 h 110 V 876.17 H -701.04 Z" fill="#1e008a"></path><path id="6" d="M -701.04 435.70 S -360.52 388.70
            0.00 435.70 281.04 401.89
            701.04 435.70 1040.08 380.70
            1402.08 435.70 1587.12 386.70
            2103.12 435.70 h 110 V 876.17 H -701.04 Z" fill="#2300a1"></path><path id="7" d="M -701.04 503.32 S -662.00 453.32
            0.00 503.32 340.52 469.51
            701.04 503.32 739.08 464.32
            1402.08 503.32 1742.60 469.51
            2103.12 503.32 h 110 V 876.17 H -701.04 Z" fill="#2800b8"></path><path id="8" d="M -701.04 570.94 S -434.00 537.13
            0.00 570.94 136.04 537.13
            701.04 570.94 1041.56 514.94
            1402.08 570.94 1734.12 537.13
            2103.12 570.94 h 110 V 876.17 H -701.04 Z" fill="#2d00cf"></path><path id="9" d="M -701.04 638.55 S -360.52 597.55
            0.00 638.55 340.52 604.74
            701.04 638.55 753.08 604.74
            1402.08 638.55 1443.12 604.74
            2103.12 638.55 h 110 V 876.17 H -701.04 Z" fill="#3200e6"></path></g></svg>